# Blender 5.0.1
# www.blender.org
mtllib kirby.mtl
o Cylinder
v -0.138523 -0.005247 -0.059130
v -0.579744 -0.005247 -0.013575
v -0.138523 0.052296 -0.017323
v -0.579744 0.008971 -0.003246
v -0.138523 0.030317 0.050323
v -0.579744 0.003540 0.013468
v -0.138523 -0.040810 0.050323
v -0.579744 -0.014034 0.013468
v -0.138523 -0.062789 -0.017323
v -0.579744 -0.019464 -0.003246
v -0.579744 0.052296 -0.017323
v -0.579744 -0.005247 -0.059130
v -0.579744 0.030317 0.050323
v -0.579744 -0.040810 0.050323
v -0.579744 -0.062789 -0.017323
v -0.723481 0.005044 -0.001970
v -0.723481 -0.005247 -0.009447
v -0.723481 0.001113 0.010128
v -0.723481 -0.011607 0.010128
v -0.723481 -0.015538 -0.001970
v -0.262385 -0.059138 -0.113233
v -0.262385 0.229871 -0.113233
v -0.262385 -0.059138 0.115981
v -0.262385 0.229871 0.115981
v 0.333155 -0.059138 -0.113233
v 0.333155 0.229871 -0.113233
v 0.333155 -0.059138 0.115981
v 0.333155 0.229871 0.115981
v -0.013270 -0.059138 0.115981
v -0.013270 0.284120 0.115981
v -0.013270 -0.059138 -0.113233
v -0.013270 0.284120 -0.113233
v -0.262385 -0.137986 0.001374
v -0.262385 0.229871 0.001374
v 0.333154 -0.137986 0.001374
v 0.333155 0.229871 0.001374
v -0.013270 0.284120 0.001374
v -0.013270 -0.177692 0.001374
v -0.262385 0.085367 -0.113233
v -0.262385 0.085367 0.115981
v 0.333155 0.085367 0.115981
v 0.333155 0.085367 -0.113233
v -0.013270 0.112491 -0.113233
v -0.013270 0.112491 0.115981
v 0.333155 0.045943 0.001374
v -0.262385 0.071637 0.001374
v -0.354359 -0.137986 0.001374
v -0.354359 -0.059138 -0.113233
v -0.354359 0.013138 0.115981
v -0.354359 -0.059138 0.115981
v -0.354359 0.071637 0.001374
v -0.354359 0.013138 -0.113233
v -0.276044 0.212187 0.013102
v -0.276044 0.008354 0.013102
v -0.276044 0.212187 -0.010354
v -0.276044 0.008354 -0.010354
v -0.402665 0.212187 0.013102
v -0.402665 0.008354 0.013102
v -0.402665 0.212187 -0.010354
v -0.402665 0.008354 -0.010354
v 0.335106 0.072400 0.074116
v 0.335106 0.244375 0.006084
v 0.335106 0.091866 0.123323
v 0.335106 0.263841 0.055291
v 0.388023 0.072400 0.074116
v 0.388023 0.244375 0.006084
v 0.388023 0.091866 0.123323
v 0.388023 0.263841 0.055291
v 0.379136 0.076579 0.116291
v 0.379136 -0.266406 0.116291
v 0.379136 0.076579 0.081148
v 0.379136 -0.266406 0.081148
v 0.343993 0.076579 0.116291
v 0.343993 -0.266406 0.116291
v 0.343993 0.076579 0.081148
v 0.343993 -0.266406 0.081148
v 0.379136 -0.218393 0.116291
v 0.379136 -0.218393 0.081148
v 0.343993 -0.218393 0.081148
v 0.343993 -0.218393 0.116291
v 0.170939 -0.277953 0.072697
v 0.170939 -0.277953 0.124742
v 0.170939 -0.206846 0.072697
v 0.170939 -0.206847 0.124742
v 0.335106 0.072400 -0.071368
v 0.335106 0.244375 -0.003336
v 0.335106 0.091866 -0.120575
v 0.335106 0.263841 -0.052543
v 0.388023 0.072400 -0.071368
v 0.388023 0.244375 -0.003336
v 0.388023 0.091866 -0.120575
v 0.388023 0.263841 -0.052543
v 0.379136 0.076579 -0.113543
v 0.379136 -0.266406 -0.113543
v 0.379136 0.076579 -0.078400
v 0.379136 -0.266406 -0.078400
v 0.343993 0.076579 -0.113543
v 0.343993 -0.266406 -0.113543
v 0.343993 0.076579 -0.078400
v 0.343993 -0.266406 -0.078400
v 0.379136 -0.218393 -0.113543
v 0.379136 -0.218393 -0.078400
v 0.343993 -0.218393 -0.078400
v 0.343993 -0.218393 -0.113543
v 0.170939 -0.277953 -0.069949
v 0.170939 -0.277953 -0.121994
v 0.170939 -0.206846 -0.069949
v 0.170939 -0.206847 -0.121994
v -0.184546 -0.094293 -0.008148
v -0.184546 -0.277299 -0.151993
v -0.184546 -0.035416 -0.083054
v -0.184546 -0.218422 -0.226899
v -0.279822 -0.094293 -0.008148
v -0.279822 -0.277299 -0.151993
v -0.279822 -0.035416 -0.083054
v -0.279822 -0.218422 -0.226899
v -0.167053 -0.064855 -0.045601
v -0.167053 -0.247860 -0.189446
v -0.297316 -0.064855 -0.045601
v -0.297316 -0.247860 -0.189446
v -0.041257 -0.094293 -0.008148
v -0.041257 -0.277299 -0.151993
v -0.041257 -0.035416 -0.083054
v -0.041257 -0.218422 -0.226899
v -0.136533 -0.094293 -0.008148
v -0.136533 -0.277299 -0.151993
v -0.136533 -0.035416 -0.083054
v -0.136533 -0.218422 -0.226899
v -0.023763 -0.064855 -0.045601
v -0.023763 -0.247860 -0.189446
v -0.154026 -0.064855 -0.045601
v -0.154026 -0.247860 -0.189446
v 0.102032 -0.094293 -0.008148
v 0.102033 -0.277299 -0.151993
v 0.102032 -0.035416 -0.083054
v 0.102033 -0.218422 -0.226899
v 0.006757 -0.094293 -0.008148
v 0.006757 -0.277299 -0.151993
v 0.006757 -0.035416 -0.083054
v 0.006757 -0.218422 -0.226899
v 0.119526 -0.064855 -0.045601
v 0.119526 -0.247860 -0.189446
v -0.010737 -0.064855 -0.045601
v -0.010737 -0.247860 -0.189446
v 0.245322 -0.094293 -0.008148
v 0.245322 -0.277299 -0.151993
v 0.245322 -0.035416 -0.083054
v 0.245322 -0.218422 -0.226899
v 0.150046 -0.094293 -0.008148
v 0.150046 -0.277299 -0.151993
v 0.150046 -0.035416 -0.083054
v 0.150046 -0.218422 -0.226899
v 0.262815 -0.064855 -0.045601
v 0.262815 -0.247860 -0.189446
v 0.132552 -0.064855 -0.045601
v 0.132552 -0.247860 -0.189446
v -0.184546 -0.094293 0.010896
v -0.184546 -0.277299 0.154740
v -0.184546 -0.035416 0.085802
v -0.184546 -0.218422 0.229647
v -0.279822 -0.094293 0.010896
v -0.279822 -0.277299 0.154740
v -0.279822 -0.035416 0.085802
v -0.279822 -0.218422 0.229647
v -0.167053 -0.064855 0.048349
v -0.167053 -0.247860 0.192193
v -0.297316 -0.064855 0.048349
v -0.297316 -0.247860 0.192193
v -0.041257 -0.094293 0.010896
v -0.041257 -0.277299 0.154740
v -0.041257 -0.035416 0.085802
v -0.041257 -0.218422 0.229647
v -0.136533 -0.094293 0.010896
v -0.136533 -0.277299 0.154740
v -0.136533 -0.035416 0.085802
v -0.136533 -0.218422 0.229647
v -0.023763 -0.064855 0.048349
v -0.023763 -0.247860 0.192193
v -0.154026 -0.064855 0.048349
v -0.154026 -0.247860 0.192193
v 0.102032 -0.094293 0.010896
v 0.102032 -0.277299 0.154740
v 0.102032 -0.035416 0.085802
v 0.102032 -0.218422 0.229647
v 0.006757 -0.094293 0.010896
v 0.006757 -0.277299 0.154740
v 0.006757 -0.035416 0.085802
v 0.006757 -0.218422 0.229647
v 0.119526 -0.064855 0.048349
v 0.119526 -0.247860 0.192193
v -0.010737 -0.064855 0.048349
v -0.010737 -0.247860 0.192193
v 0.245322 -0.094293 0.010896
v 0.245322 -0.277299 0.154740
v 0.245322 -0.035416 0.085802
v 0.245322 -0.218422 0.229647
v 0.150046 -0.094293 0.010896
v 0.150046 -0.277299 0.154740
v 0.150046 -0.035416 0.085802
v 0.150046 -0.218422 0.229647
v 0.262815 -0.064855 0.048349
v 0.262815 -0.247860 0.192193
v 0.132552 -0.064855 0.048349
v 0.132552 -0.247860 0.192193
v 0.179899 -0.232495 -0.158413
v 0.179899 -0.209540 -0.142770
v 0.179899 -0.276190 -0.094295
v 0.179899 -0.253235 -0.078652
v -0.215069 -0.232495 -0.158413
v -0.215069 -0.209540 -0.142770
v -0.215069 -0.276190 -0.094295
v -0.215069 -0.253235 -0.078652
v 0.358968 -0.034592 0.058459
v 0.358968 -0.249012 0.058459
v 0.358968 -0.034592 -0.055711
v 0.358968 -0.249012 -0.055711
v 0.307341 -0.034592 0.058459
v 0.307341 -0.249012 0.058459
v 0.307341 -0.034592 -0.055711
v 0.307341 -0.249012 -0.055711
vn -0.0000 0.5878 -0.8090
vn -0.0000 0.9511 0.3090
vn -0.0000 -0.0000 1.0000
vn -0.0232 -0.5876 -0.8088
vn -0.0000 -0.9511 0.3090
vn -0.0000 -0.5878 -0.8090
vn 1.0000 -0.0000 -0.0000
vn -1.0000 -0.0000 -0.0000
vn -0.0232 -0.0000 0.9997
vn -0.0232 0.5876 -0.8088
vn -0.0232 -0.9508 0.3089
vn -0.0232 0.9508 0.3089
vn -0.0000 -0.0000 -1.0000
vn 0.0434 -0.7570 -0.6520
vn -0.2128 0.9771 -0.0000
vn 0.1547 0.9880 -0.0000
vn -0.0603 -0.7564 -0.6514
vn -0.0603 -0.7564 0.6514
vn 0.0434 -0.7570 0.6520
vn -0.0000 -0.8239 0.5668
vn -0.0000 -0.8239 -0.5668
vn -0.3596 0.9158 -0.1789
vn -0.3596 0.9158 0.1789
vn -0.0000 1.0000 -0.0000
vn -0.0000 -1.0000 -0.0000
vn -0.0000 0.3679 0.9299
vn -0.0000 -0.3679 -0.9299
vn -0.0000 -0.9299 0.3679
vn -0.0000 0.9299 -0.3679
vn 0.0488 -0.0000 -0.9988
vn 0.0666 -0.9978 -0.0000
vn 0.0666 0.9978 -0.0000
vn 0.0488 -0.0000 0.9988
vn -0.0000 0.3679 -0.9299
vn -0.0000 -0.3679 0.9299
vn -0.0000 -0.9299 -0.3679
vn -0.0000 0.9299 0.3679
vn 0.9387 0.2130 -0.2710
vn -0.0000 0.6180 -0.7862
vn -0.9387 -0.2130 0.2710
vn -0.0000 -0.6180 0.7862
vn -0.0000 0.7862 0.6180
vn -0.0000 -0.7862 -0.6180
vn -0.9387 0.2130 -0.2710
vn 0.9387 -0.2130 0.2710
vn 0.9387 0.2130 0.2710
vn -0.0000 0.6180 0.7862
vn -0.9387 -0.2130 -0.2710
vn -0.0000 -0.6180 -0.7862
vn -0.0000 0.7862 -0.6180
vn -0.0000 -0.7862 0.6180
vn -0.9387 0.2130 0.2710
vn 0.9387 -0.2130 -0.2710
vn -0.0000 -0.5631 0.8264
vn -0.0000 0.5631 -0.8264
vn -0.0000 -0.8264 -0.5631
vn -0.0000 0.8264 0.5631
vt 1.000000 0.500000
vt 1.000000 1.000000
vt 0.800000 1.000000
vt 0.800000 0.500000
vt 0.600000 1.000000
vt 0.600000 0.500000
vt 0.400000 1.000000
vt 0.400000 0.500000
vt 0.250000 0.385318
vt 0.121305 0.291816
vt 0.200000 1.000000
vt 0.200000 0.500000
vt 0.000000 1.000000
vt 0.000000 0.500000
vt 0.750000 0.490000
vt 0.978254 0.324164
vt 0.891068 0.055836
vt 0.608932 0.055836
vt 0.521746 0.324164
vt 0.378695 0.291816
vt 0.478254 0.324164
vt 0.250000 0.490000
vt 0.329538 0.140525
vt 0.391068 0.055836
vt 0.170462 0.140525
vt 0.108932 0.055836
vt 0.021746 0.324164
vt 0.500000 0.125000
vt 0.500000 0.250000
vt 0.625000 0.250000
vt 0.625000 0.125000
vt 0.500000 0.375000
vt 0.500000 0.500000
vt 0.625000 0.500000
vt 0.625000 0.375000
vt 0.500000 0.625000
vt 0.500000 0.750000
vt 0.625000 0.750000
vt 0.625000 0.625000
vt 0.500000 0.875000
vt 0.500000 1.000000
vt 0.625000 1.000000
vt 0.625000 0.875000
vt 0.250000 0.625000
vt 0.250000 0.750000
vt 0.375000 0.750000
vt 0.375000 0.625000
vt 0.750000 0.625000
vt 0.750000 0.750000
vt 0.875000 0.750000
vt 0.875000 0.625000
vt 0.125000 0.625000
vt 0.125000 0.750000
vt 0.125000 0.500000
vt 0.250000 0.500000
vt 0.750000 0.500000
vt 0.875000 0.500000
vt 0.375000 0.500000
vt 0.500000 0.000000
vt 0.625000 0.000000
vt 0.375000 0.250000
vt 0.375000 0.375000
vt 0.375000 0.875000
vt 0.375000 1.000000
vt 0.375000 0.000000
vt 0.375000 0.125000
vt 0.590003 0.000000
vt 0.590003 0.250000
vt 0.590003 0.500000
vt 0.590003 0.750000
vt 0.590003 1.000000
s 0
f 1/1/1 12/2/1 11/3/1 3/4/1
f 3/4/2 11/3/2 13/5/2 5/6/2
f 5/6/3 13/5/3 14/7/3 7/8/3
f 2/9/4 10/10/4 20/10/4 17/9/4
f 7/8/5 14/7/5 15/11/5 9/12/5
f 9/12/6 15/11/6 12/13/6 1/14/6
f 1/15/7 3/16/7 5/17/7 7/18/7 9/19/7
f 2/9/8 4/20/8 11/21/8 12/22/8
f 4/20/8 6/23/8 13/24/8 11/21/8
f 6/23/8 8/25/8 14/26/8 13/24/8
f 8/25/8 10/10/8 15/27/8 14/26/8
f 10/10/8 2/9/8 12/22/8 15/27/8
f 16/20/8 17/9/8 20/10/8 19/25/8 18/23/8
f 8/25/9 6/23/9 18/23/9 19/25/9
f 4/20/10 2/9/10 17/9/10 16/20/10
f 10/10/11 8/25/11 19/25/11 20/10/11
f 6/23/12 4/20/12 16/20/12 18/23/12
f 46/28/8 40/29/8 24/30/8 34/31/8
f 44/32/3 41/33/3 28/34/3 30/35/3
f 45/36/7 42/37/7 26/38/7 36/39/7
f 43/40/13 39/41/13 22/42/13 32/43/13
f 38/44/14 31/45/14 25/46/14 35/47/14
f 37/48/15 32/49/15 22/50/15 34/51/15
f 36/39/16 26/38/16 32/49/16 37/48/16
f 33/52/17 21/53/17 31/45/17 38/44/17
f 42/37/13 43/40/13 32/43/13 26/38/13
f 40/29/3 44/32/3 30/35/3 24/30/3
f 23/54/18 33/52/18 38/44/18 29/55/18
f 28/34/16 36/39/16 37/48/16 30/56/16
f 30/56/15 37/48/15 34/51/15 24/57/15
f 29/55/19 38/44/19 35/47/19 27/58/19
f 41/33/7 45/36/7 36/39/7 28/34/7
f 39/59/8 46/28/8 34/31/8 22/60/8
f 23/54/20 50/54/20 47/52/20 33/52/20
f 27/58/7 35/47/7 45/36/7 41/33/7
f 23/61/3 29/62/3 44/32/3 40/29/3
f 25/46/13 31/63/13 43/40/13 42/37/13
f 31/63/13 21/64/13 39/41/13 43/40/13
f 35/47/7 25/46/7 42/37/7 45/36/7
f 29/62/3 27/58/3 41/33/3 44/32/3
f 33/52/21 47/52/21 48/53/21 21/53/21
f 48/65/8 47/66/8 51/28/8 52/59/8
f 47/66/8 50/61/8 49/29/8 51/28/8
f 39/59/22 52/59/22 51/28/22 46/28/22
f 46/28/23 51/28/23 49/29/23 40/29/23
f 40/29/3 49/29/3 50/61/3 23/61/3
f 21/64/13 48/64/13 52/41/13 39/41/13
f 53/65/7 54/60/7 56/30/7 55/61/7
f 55/61/13 56/30/13 60/34/13 59/58/13
f 59/58/8 60/34/8 58/38/8 57/46/8
f 57/46/3 58/38/3 54/42/3 53/64/3
f 55/54/24 59/58/24 57/46/24 53/53/24
f 60/34/25 56/57/25 54/50/25 58/38/25
f 61/65/8 63/61/8 64/30/8 62/60/8
f 63/61/26 67/58/26 68/34/26 64/30/26
f 67/58/7 65/46/7 66/38/7 68/34/7
f 65/46/27 61/64/27 62/42/27 66/38/27
f 63/54/28 61/53/28 65/46/28 67/58/28
f 68/34/29 66/38/29 62/50/29 64/57/29
f 77/67/7 70/60/7 72/30/7 78/68/7
f 78/68/13 72/30/13 76/34/13 79/69/13
f 79/69/30 76/34/30 81/34/30 83/69/30
f 80/70/3 74/38/3 70/42/3 77/71/3
f 71/54/24 75/58/24 73/46/24 69/53/24
f 76/34/25 72/57/25 70/50/25 74/38/25
f 73/46/3 80/70/3 77/71/3 69/64/3
f 75/58/8 79/69/8 80/70/8 73/46/8
f 71/61/13 78/68/13 79/69/13 75/58/13
f 69/65/7 77/67/7 78/68/7 71/61/7
f 83/69/8 81/34/8 82/38/8 84/70/8
f 76/34/31 74/38/31 82/38/31 81/34/31
f 80/70/32 79/69/32 83/69/32 84/70/32
f 74/38/33 80/70/33 84/70/33 82/38/33
f 85/65/8 86/60/8 88/30/8 87/61/8
f 87/61/34 88/30/34 92/34/34 91/58/34
f 91/58/7 92/34/7 90/38/7 89/46/7
f 89/46/35 90/38/35 86/42/35 85/64/35
f 87/54/36 91/58/36 89/46/36 85/53/36
f 92/34/37 88/57/37 86/50/37 90/38/37
f 101/67/7 102/68/7 96/30/7 94/60/7
f 102/68/3 103/69/3 100/34/3 96/30/3
f 103/69/33 107/69/33 105/34/33 100/34/33
f 104/70/13 101/71/13 94/42/13 98/38/13
f 95/54/24 93/53/24 97/46/24 99/58/24
f 100/34/25 98/38/25 94/50/25 96/57/25
f 97/46/13 93/64/13 101/71/13 104/70/13
f 99/58/8 97/46/8 104/70/8 103/69/8
f 95/61/3 99/58/3 103/69/3 102/68/3
f 93/65/7 95/61/7 102/68/7 101/67/7
f 107/69/8 108/70/8 106/38/8 105/34/8
f 100/34/31 105/34/31 106/38/31 98/38/31
f 104/70/32 108/70/32 107/69/32 103/69/32
f 98/38/30 106/38/30 108/70/30 104/70/30
f 117/66/38 118/31/38 112/30/38 111/61/38
f 111/61/39 112/30/39 116/34/39 115/58/39
f 119/47/40 120/39/40 114/38/40 113/46/40
f 113/46/41 114/38/41 110/42/41 109/64/41
f 117/52/42 119/47/42 113/46/42 109/53/42
f 120/39/43 118/51/43 110/50/43 114/38/43
f 116/34/43 112/57/43 118/51/43 120/39/43
f 111/54/42 115/58/42 119/47/42 117/52/42
f 115/58/44 116/34/44 120/39/44 119/47/44
f 109/65/45 110/60/45 118/31/45 117/66/45
f 129/66/38 130/31/38 124/30/38 123/61/38
f 123/61/39 124/30/39 128/34/39 127/58/39
f 131/47/40 132/39/40 126/38/40 125/46/40
f 125/46/41 126/38/41 122/42/41 121/64/41
f 129/52/42 131/47/42 125/46/42 121/53/42
f 132/39/43 130/51/43 122/50/43 126/38/43
f 128/34/43 124/57/43 130/51/43 132/39/43
f 123/54/42 127/58/42 131/47/42 129/52/42
f 127/58/44 128/34/44 132/39/44 131/47/44
f 121/65/45 122/60/45 130/31/45 129/66/45
f 141/66/38 142/31/38 136/30/38 135/61/38
f 135/61/39 136/30/39 140/34/39 139/58/39
f 143/47/40 144/39/40 138/38/40 137/46/40
f 137/46/41 138/38/41 134/42/41 133/64/41
f 141/52/42 143/47/42 137/46/42 133/53/42
f 144/39/43 142/51/43 134/50/43 138/38/43
f 140/34/43 136/57/43 142/51/43 144/39/43
f 135/54/42 139/58/42 143/47/42 141/52/42
f 139/58/44 140/34/44 144/39/44 143/47/44
f 133/65/45 134/60/45 142/31/45 141/66/45
f 153/66/38 154/31/38 148/30/38 147/61/38
f 147/61/39 148/30/39 152/34/39 151/58/39
f 155/47/40 156/39/40 150/38/40 149/46/40
f 149/46/41 150/38/41 146/42/41 145/64/41
f 153/52/42 155/47/42 149/46/42 145/53/42
f 156/39/43 154/51/43 146/50/43 150/38/43
f 152/34/43 148/57/43 154/51/43 156/39/43
f 147/54/42 151/58/42 155/47/42 153/52/42
f 151/58/44 152/34/44 156/39/44 155/47/44
f 145/65/45 146/60/45 154/31/45 153/66/45
f 165/66/46 159/61/46 160/30/46 166/31/46
f 159/61/47 163/58/47 164/34/47 160/30/47
f 167/47/48 161/46/48 162/38/48 168/39/48
f 161/46/49 157/64/49 158/42/49 162/38/49
f 165/52/50 157/53/50 161/46/50 167/47/50
f 168/39/51 162/38/51 158/50/51 166/51/51
f 164/34/51 168/39/51 166/51/51 160/57/51
f 159/54/50 165/52/50 167/47/50 163/58/50
f 163/58/52 167/47/52 168/39/52 164/34/52
f 157/65/53 165/66/53 166/31/53 158/60/53
f 177/66/46 171/61/46 172/30/46 178/31/46
f 171/61/47 175/58/47 176/34/47 172/30/47
f 179/47/48 173/46/48 174/38/48 180/39/48
f 173/46/49 169/64/49 170/42/49 174/38/49
f 177/52/50 169/53/50 173/46/50 179/47/50
f 180/39/51 174/38/51 170/50/51 178/51/51
f 176/34/51 180/39/51 178/51/51 172/57/51
f 171/54/50 177/52/50 179/47/50 175/58/50
f 175/58/52 179/47/52 180/39/52 176/34/52
f 169/65/53 177/66/53 178/31/53 170/60/53
f 189/66/46 183/61/46 184/30/46 190/31/46
f 183/61/47 187/58/47 188/34/47 184/30/47
f 191/47/48 185/46/48 186/38/48 192/39/48
f 185/46/49 181/64/49 182/42/49 186/38/49
f 189/52/50 181/53/50 185/46/50 191/47/50
f 192/39/51 186/38/51 182/50/51 190/51/51
f 188/34/51 192/39/51 190/51/51 184/57/51
f 183/54/50 189/52/50 191/47/50 187/58/50
f 187/58/52 191/47/52 192/39/52 188/34/52
f 181/65/53 189/66/53 190/31/53 182/60/53
f 201/66/46 195/61/46 196/30/46 202/31/46
f 195/61/47 199/58/47 200/34/47 196/30/47
f 203/47/48 197/46/48 198/38/48 204/39/48
f 197/46/49 193/64/49 194/42/49 198/38/49
f 201/52/50 193/53/50 197/46/50 203/47/50
f 204/39/51 198/38/51 194/50/51 202/51/51
f 200/34/51 204/39/51 202/51/51 196/57/51
f 195/54/50 201/52/50 203/47/50 199/58/50
f 199/58/52 203/47/52 204/39/52 200/34/52
f 193/65/53 201/66/53 202/31/53 194/60/53
f 205/65/7 206/60/7 208/30/7 207/61/7
f 207/61/54 208/30/54 212/34/54 211/58/54
f 211/58/8 212/34/8 210/38/8 209/46/8
f 209/46/55 210/38/55 206/42/55 205/64/55
f 207/54/56 211/58/56 209/46/56 205/53/56
f 212/34/57 208/57/57 206/50/57 210/38/57
f 213/65/7 214/60/7 216/30/7 215/61/7
f 215/61/13 216/30/13 220/34/13 219/58/13
f 219/58/8 220/34/8 218/38/8 217/46/8
f 217/46/3 218/38/3 214/42/3 213/64/3
f 215/54/24 219/58/24 217/46/24 213/53/24
f 220/34/25 216/57/25 214/50/25 218/38/25
o Cube
v 0.519340 0.432865 0.519340
v 0.530887 0.444412 0.530887
v 0.519340 -0.432865 0.519340
v 0.530887 -0.444412 0.530887
v 0.519340 0.432865 -0.519340
v 0.530887 0.444412 -0.530887
v 0.519340 -0.432865 -0.519340
v 0.530887 -0.444412 -0.530887
v -0.519340 0.432865 0.519340
v -0.530887 0.444412 0.530887
v -0.519340 -0.432865 0.519340
v -0.530887 -0.444412 0.530887
v -0.519340 0.432865 -0.519340
v -0.530887 0.444412 -0.530887
v -0.519340 -0.432865 -0.519340
v -0.530887 -0.444412 -0.530887
v 0.525114 0.428639 0.515114
v 0.525114 -0.428639 0.515114
v 0.525114 -0.428639 -0.515114
v 0.525114 0.428639 -0.515114
v 0.515114 0.428639 -0.525114
v 0.515114 -0.428639 -0.525114
v -0.515114 -0.428639 -0.525114
v -0.515114 0.428639 -0.525114
v -0.525114 0.428639 -0.515114
v -0.525114 -0.428639 -0.515114
v -0.525114 -0.428639 0.515114
v -0.525114 0.428639 0.515114
v -0.515114 0.428639 0.525114
v -0.515114 -0.428639 0.525114
v 0.515114 -0.428639 0.525114
v 0.515114 0.428639 0.525114
v 0.515114 0.438639 -0.515114
v -0.515114 0.438639 -0.515114
v -0.515114 0.438639 0.515114
v 0.515114 0.438639 0.515114
v -0.515114 -0.438639 -0.515114
v 0.515114 -0.438639 -0.515114
v 0.515114 -0.438639 0.515114
v -0.515114 -0.438639 0.515114
vn -0.5907 -0.0000 -0.8069
vn 0.9391 -0.0000 -0.3437
vn -0.5907 0.8069 -0.0000
vn 0.9391 0.3437 -0.0000
vn -0.5907 -0.0000 0.8069
vn 0.9391 -0.0000 0.3437
vn -0.5907 -0.8069 -0.0000
vn 0.9391 -0.3437 -0.0000
vn -0.8069 -0.0000 0.5907
vn -0.3437 -0.0000 -0.9391
vn -0.0000 0.8069 0.5907
vn -0.0000 0.3437 -0.9391
vn 0.8069 -0.0000 0.5907
vn 0.3437 -0.0000 -0.9391
vn -0.0000 -0.8069 0.5907
vn -0.0000 -0.3437 -0.9391
vn 0.5907 -0.0000 0.8069
vn -0.9391 -0.0000 0.3437
vn 0.5907 0.8069 -0.0000
vn -0.9391 0.3437 -0.0000
vn 0.5907 -0.0000 -0.8069
vn -0.9391 -0.0000 -0.3437
vn 0.5907 -0.8069 -0.0000
vn -0.9391 -0.3437 -0.0000
vn 0.8069 -0.0000 -0.5907
vn 0.3437 -0.0000 0.9391
vn -0.0000 0.8069 -0.5907
vn -0.0000 0.3437 0.9391
vn -0.8069 -0.0000 -0.5907
vn -0.3437 -0.0000 0.9391
vn -0.0000 -0.8069 -0.5907
vn -0.0000 -0.3437 0.9391
vn -0.0000 -0.5907 0.8069
vn -0.0000 0.9391 0.3437
vn 0.8069 -0.5907 -0.0000
vn 0.3437 0.9391 -0.0000
vn -0.0000 -0.5907 -0.8069
vn -0.0000 0.9391 -0.3437
vn -0.8069 -0.5907 -0.0000
vn -0.3437 0.9391 -0.0000
vn -0.0000 0.5907 0.8069
vn -0.0000 -0.9391 0.3437
vn -0.8069 0.5907 -0.0000
vn -0.3437 -0.9391 -0.0000
vn -0.0000 0.5907 -0.8069
vn -0.0000 -0.9391 -0.3437
vn 0.8069 0.5907 -0.0000
vn 0.3437 -0.9391 -0.0000
vt 0.375000 0.000000
vt 0.625000 0.000000
vt 0.625000 0.250000
vt 0.375000 0.250000
vt 0.625000 0.500000
vt 0.375000 0.500000
vt 0.625000 0.750000
vt 0.375000 0.750000
vt 0.625000 1.000000
vt 0.375000 1.000000
vt 0.125000 0.500000
vt 0.125000 0.750000
vt 0.875000 0.500000
vt 0.875000 0.750000
s 0
f 237/72/58 238/73/58 223/73/58 221/72/58
f 238/73/59 237/72/59 222/72/59 224/73/59
f 238/73/60 239/74/60 227/74/60 223/73/60
f 239/74/61 238/73/61 224/73/61 228/74/61
f 239/74/62 240/75/62 225/75/62 227/74/62
f 240/75/63 239/74/63 228/74/63 226/75/63
f 240/75/64 237/72/64 221/72/64 225/75/64
f 237/72/65 240/75/65 226/75/65 222/72/65
f 241/75/66 242/74/66 227/74/66 225/75/66
f 242/74/67 241/75/67 226/75/67 228/74/67
f 242/74/68 243/76/68 235/76/68 227/74/68
f 243/76/69 242/74/69 228/74/69 236/76/69
f 243/76/70 244/77/70 233/77/70 235/76/70
f 244/77/71 243/76/71 236/76/71 234/77/71
f 244/77/72 241/75/72 225/75/72 233/77/72
f 241/75/73 244/77/73 234/77/73 226/75/73
f 245/77/74 246/76/74 235/76/74 233/77/74
f 246/76/75 245/77/75 234/77/75 236/76/75
f 246/76/76 247/78/76 231/78/76 235/76/76
f 247/78/77 246/76/77 236/76/77 232/78/77
f 247/78/78 248/79/78 229/79/78 231/78/78
f 248/79/79 247/78/79 232/78/79 230/79/79
f 248/79/80 245/77/80 233/77/80 229/79/80
f 245/77/81 248/79/81 230/79/81 234/77/81
f 249/79/82 250/78/82 231/78/82 229/79/82
f 250/78/83 249/79/83 230/79/83 232/78/83
f 250/78/84 251/80/84 223/80/84 231/78/84
f 251/80/85 250/78/85 232/78/85 224/80/85
f 251/80/86 252/81/86 221/81/86 223/80/86
f 252/81/87 251/80/87 224/80/87 222/81/87
f 252/81/88 249/79/88 229/79/88 221/81/88
f 249/79/89 252/81/89 222/81/89 230/79/89
f 253/82/90 254/77/90 233/77/90 225/82/90
f 254/77/91 253/82/91 226/82/91 234/77/91
f 254/77/92 255/79/92 229/79/92 233/77/92
f 255/79/93 254/77/93 234/77/93 230/79/93
f 255/79/94 256/83/94 221/83/94 229/79/94
f 256/83/95 255/79/95 230/79/95 222/83/95
f 256/83/96 253/82/96 225/82/96 221/83/96
f 253/82/97 256/83/97 222/83/97 226/82/97
f 257/76/98 258/84/98 227/84/98 235/76/98
f 258/84/99 257/76/99 236/76/99 228/84/99
f 258/84/100 259/85/100 223/85/100 227/84/100
f 259/85/101 258/84/101 228/84/101 224/85/101
f 259/85/102 260/78/102 231/78/102 223/85/102
f 260/78/103 259/85/103 224/85/103 232/78/103
f 260/78/104 257/76/104 235/76/104 231/78/104
f 257/76/105 260/78/105 232/78/105 236/76/105
